<svg width="900" height="280" viewBox="0 0 900 280" fill="none" xmlns="http://www.w3.org/2000/svg">
<g clip-path="url(#clip0_1_301)">
<rect width="900" height="280" fill="white"/>
<rect x="30" y="50" width="840" height="200" fill="#ADAACE" fill-opacity="0.3"/>
<g clip-path="url(#clip1_1_301)">
<path d="M-707.644 531.944L97.6489 -275.997L137.764 -235.75L-667.529 572.19L-707.644 531.944Z" fill="#FFCC00"/>
<path d="M-547.816 531.936L257.477 -276.004L297.592 -235.757L-507.701 572.183L-547.816 531.936Z" fill="#FFCC00"/>
<path d="M-387.993 531.944L417.3 -275.997L457.415 -235.75L-347.879 572.191L-387.993 531.944Z" fill="#FFCC00"/>
<path d="M-228.165 531.936L577.128 -276.004L617.243 -235.757L-188.05 572.183L-228.165 531.936Z" fill="#FFCC00"/>
<path d="M-68.3425 531.944L736.951 -275.996L777.066 -235.75L-28.2277 572.191L-68.3425 531.944Z" fill="#FFCC00"/>
<path d="M91.486 531.937L896.779 -276.004L936.894 -235.757L131.601 572.183L91.486 531.937Z" fill="#FFCC00"/>
<path d="M251.308 531.944L1056.6 -275.996L1096.72 -235.75L291.423 572.191L251.308 531.944Z" fill="#FFCC00"/>
<path d="M411.137 531.937L1216.43 -276.004L1256.54 -235.757L451.252 572.183L411.137 531.937Z" fill="#FFCC00"/>
<path d="M570.959 531.944L1376.25 -275.996L1416.37 -235.749L611.074 572.191L570.959 531.944Z" fill="#FFCC00"/>
<path d="M730.788 531.937L1536.08 -276.003L1576.2 -235.757L770.903 572.184L730.788 531.937Z" fill="#FFCC00"/>
</g>
<path d="M283.386 143.528C283.386 145.688 282.81 147.56 281.658 149.144C280.554 150.728 278.874 152 276.618 152.96C279.402 153.872 281.49 155.24 282.882 157.064C284.274 158.888 284.97 161.048 284.97 163.544C284.97 168.104 283.314 171.488 280.002 173.696C276.69 175.904 271.89 177.008 265.602 177.008C264.69 177.008 263.706 176.984 262.65 176.936C261.642 176.888 260.61 176.792 259.554 176.648C258.498 176.552 257.442 176.384 256.386 176.144C255.33 175.952 254.346 175.712 253.434 175.424C251.13 174.656 249.978 173.24 249.978 171.176V135.968C249.978 135.056 250.218 134.36 250.698 133.88C251.178 133.4 251.85 133.016 252.714 132.728C254.346 132.2 256.242 131.84 258.402 131.648C260.562 131.408 262.818 131.288 265.17 131.288C270.978 131.288 275.466 132.296 278.634 134.312C281.802 136.28 283.386 139.352 283.386 143.528ZM275.466 163.184C275.466 161.264 274.77 159.752 273.378 158.648C272.034 157.544 270.066 156.992 267.474 156.992H259.05V169.016C259.962 169.256 261.042 169.424 262.29 169.52C263.586 169.616 264.858 169.664 266.106 169.664C269.034 169.664 271.314 169.16 272.946 168.152C274.626 167.096 275.466 165.44 275.466 163.184ZM259.05 150.152H266.322C268.914 150.152 270.834 149.624 272.082 148.568C273.378 147.512 274.026 146.048 274.026 144.176C274.026 140.384 271.098 138.488 265.242 138.488C264.042 138.488 262.89 138.536 261.786 138.632C260.73 138.728 259.818 138.848 259.05 138.992V150.152ZM306.309 170.168C307.701 170.168 308.973 170.048 310.125 169.808C311.277 169.52 312.117 169.184 312.645 168.8V160.808L305.661 161.456C303.741 161.648 302.277 162.08 301.269 162.752C300.261 163.376 299.757 164.384 299.757 165.776C299.757 167.168 300.261 168.248 301.269 169.016C302.325 169.784 304.005 170.168 306.309 170.168ZM306.021 140.864C310.725 140.864 314.469 141.872 317.253 143.888C320.085 145.904 321.501 149.024 321.501 153.248V169.88C321.501 171.032 321.213 171.944 320.637 172.616C320.061 173.288 319.341 173.888 318.477 174.416C317.133 175.232 315.429 175.88 313.365 176.36C311.301 176.84 308.949 177.08 306.309 177.08C301.509 177.08 297.717 176.168 294.933 174.344C292.197 172.472 290.829 169.688 290.829 165.992C290.829 162.776 291.837 160.328 293.853 158.648C295.917 156.92 298.893 155.864 302.781 155.48L312.645 154.472V153.176C312.645 151.352 311.973 150.008 310.629 149.144C309.333 148.28 307.485 147.848 305.085 147.848C303.213 147.848 301.389 148.088 299.613 148.568C297.837 149 296.253 149.552 294.861 150.224C294.333 149.84 293.877 149.336 293.493 148.712C293.157 148.04 292.989 147.32 292.989 146.552C292.989 145.592 293.205 144.824 293.637 144.248C294.117 143.624 294.861 143.072 295.869 142.592C297.261 142.016 298.845 141.584 300.621 141.296C302.397 141.008 304.197 140.864 306.021 140.864ZM340.038 175.928C339.654 176.024 339.078 176.144 338.31 176.288C337.59 176.432 336.798 176.504 335.934 176.504C334.206 176.504 332.934 176.192 332.118 175.568C331.35 174.944 330.966 173.84 330.966 172.256V129.2C331.35 129.056 331.902 128.936 332.622 128.84C333.39 128.696 334.206 128.624 335.07 128.624C336.798 128.624 338.046 128.936 338.814 129.56C339.63 130.184 340.038 131.288 340.038 132.872V175.928ZM383.211 158.936C383.211 161.72 382.779 164.24 381.915 166.496C381.099 168.704 379.923 170.6 378.387 172.184C376.851 173.768 375.003 174.992 372.843 175.856C370.683 176.672 368.259 177.08 365.571 177.08C362.883 177.08 360.459 176.672 358.299 175.856C356.139 174.992 354.291 173.792 352.755 172.256C351.219 170.672 350.019 168.776 349.155 166.568C348.339 164.312 347.931 161.768 347.931 158.936C347.931 156.152 348.339 153.656 349.155 151.448C350.019 149.192 351.219 147.296 352.755 145.76C354.339 144.176 356.211 142.976 358.371 142.16C360.531 141.296 362.931 140.864 365.571 140.864C368.211 140.864 370.611 141.296 372.771 142.16C374.931 142.976 376.779 144.176 378.315 145.76C379.899 147.344 381.099 149.264 381.915 151.52C382.779 153.728 383.211 156.2 383.211 158.936ZM365.571 148.064C362.979 148.064 360.939 149.024 359.451 150.944C357.963 152.816 357.219 155.48 357.219 158.936C357.219 162.44 357.939 165.128 359.379 167C360.867 168.872 362.931 169.808 365.571 169.808C368.211 169.808 370.251 168.872 371.691 167C373.179 165.08 373.923 162.392 373.923 158.936C373.923 155.48 373.179 152.816 371.691 150.944C370.203 149.024 368.163 148.064 365.571 148.064ZM424.273 158.936C424.273 161.72 423.841 164.24 422.977 166.496C422.161 168.704 420.985 170.6 419.449 172.184C417.913 173.768 416.065 174.992 413.905 175.856C411.745 176.672 409.321 177.08 406.633 177.08C403.945 177.08 401.521 176.672 399.361 175.856C397.201 174.992 395.353 173.792 393.817 172.256C392.281 170.672 391.081 168.776 390.217 166.568C389.401 164.312 388.993 161.768 388.993 158.936C388.993 156.152 389.401 153.656 390.217 151.448C391.081 149.192 392.281 147.296 393.817 145.76C395.401 144.176 397.273 142.976 399.433 142.16C401.593 141.296 403.993 140.864 406.633 140.864C409.273 140.864 411.673 141.296 413.833 142.16C415.993 142.976 417.841 144.176 419.377 145.76C420.961 147.344 422.161 149.264 422.977 151.52C423.841 153.728 424.273 156.2 424.273 158.936ZM406.633 148.064C404.041 148.064 402.001 149.024 400.513 150.944C399.025 152.816 398.281 155.48 398.281 158.936C398.281 162.44 399.001 165.128 400.441 167C401.929 168.872 403.993 169.808 406.633 169.808C409.273 169.808 411.313 168.872 412.753 167C414.241 165.08 414.985 162.392 414.985 158.936C414.985 155.48 414.241 152.816 412.753 150.944C411.265 149.024 409.225 148.064 406.633 148.064ZM445.838 137.696C445.838 136.736 446.15 135.872 446.774 135.104C447.398 134.288 448.262 133.592 449.366 133.016C450.47 132.44 451.79 132.008 453.326 131.72C454.91 131.384 456.614 131.216 458.438 131.216C461.03 131.216 463.31 131.552 465.278 132.224C467.294 132.848 468.974 133.736 470.318 134.888C471.71 136.04 472.742 137.408 473.414 138.992C474.134 140.576 474.494 142.328 474.494 144.248C474.494 146.84 473.774 149.36 472.334 151.808C470.942 154.256 468.614 156.872 465.35 159.656L454.838 168.8H474.134C474.374 169.184 474.59 169.688 474.782 170.312C474.974 170.936 475.07 171.608 475.07 172.328C475.07 173.576 474.782 174.512 474.206 175.136C473.63 175.712 472.838 176 471.83 176H446.63C445.862 175.472 445.262 174.8 444.83 173.984C444.398 173.168 444.182 172.208 444.182 171.104C444.182 169.904 444.422 168.872 444.902 168.008C445.43 167.144 446.03 166.4 446.702 165.776L458.15 155.336C460.838 152.936 462.686 150.944 463.694 149.36C464.702 147.728 465.206 146.144 465.206 144.608C465.206 142.832 464.558 141.392 463.262 140.288C461.966 139.184 460.07 138.632 457.574 138.632C455.558 138.632 453.758 138.968 452.174 139.64C450.59 140.264 449.27 140.96 448.214 141.728C447.542 141.344 446.966 140.816 446.486 140.144C446.054 139.472 445.838 138.656 445.838 137.696ZM503.571 176.144C502.035 176.144 500.811 175.688 499.899 174.776C499.035 173.864 498.603 172.64 498.603 171.104V132.296C498.987 132.2 499.587 132.08 500.403 131.936C501.267 131.792 502.107 131.72 502.923 131.72C504.651 131.72 505.923 132.032 506.739 132.656C507.555 133.28 507.963 134.432 507.963 136.112V168.44H526.467C526.707 168.824 526.947 169.352 527.187 170.024C527.427 170.648 527.547 171.344 527.547 172.112C527.547 173.408 527.235 174.416 526.611 175.136C526.035 175.808 525.219 176.144 524.163 176.144H503.571ZM547.551 170.168C548.943 170.168 550.215 170.048 551.367 169.808C552.519 169.52 553.359 169.184 553.887 168.8V160.808L546.903 161.456C544.983 161.648 543.519 162.08 542.511 162.752C541.503 163.376 540.999 164.384 540.999 165.776C540.999 167.168 541.503 168.248 542.511 169.016C543.567 169.784 545.247 170.168 547.551 170.168ZM547.263 140.864C551.967 140.864 555.711 141.872 558.495 143.888C561.327 145.904 562.743 149.024 562.743 153.248V169.88C562.743 171.032 562.455 171.944 561.879 172.616C561.303 173.288 560.583 173.888 559.719 174.416C558.375 175.232 556.671 175.88 554.607 176.36C552.543 176.84 550.191 177.08 547.551 177.08C542.751 177.08 538.959 176.168 536.175 174.344C533.439 172.472 532.071 169.688 532.071 165.992C532.071 162.776 533.079 160.328 535.095 158.648C537.159 156.92 540.135 155.864 544.023 155.48L553.887 154.472V153.176C553.887 151.352 553.215 150.008 551.871 149.144C550.575 148.28 548.727 147.848 546.327 147.848C544.455 147.848 542.631 148.088 540.855 148.568C539.079 149 537.495 149.552 536.103 150.224C535.575 149.84 535.119 149.336 534.735 148.712C534.399 148.04 534.231 147.32 534.231 146.552C534.231 145.592 534.447 144.824 534.879 144.248C535.359 143.624 536.103 143.072 537.111 142.592C538.503 142.016 540.087 141.584 541.863 141.296C543.639 141.008 545.439 140.864 547.263 140.864ZM580.848 165.416C580.848 166.952 581.304 168.056 582.216 168.728C583.176 169.4 584.496 169.736 586.176 169.736C586.992 169.736 587.808 169.64 588.624 169.448C589.488 169.256 590.256 169.016 590.928 168.728C591.312 169.112 591.624 169.592 591.864 170.168C592.152 170.696 592.296 171.32 592.296 172.04C592.296 173.48 591.648 174.68 590.352 175.64C589.056 176.552 586.968 177.008 584.088 177.008C580.296 177.008 577.296 176.168 575.088 174.488C572.928 172.76 571.848 169.928 571.848 165.992V132.944C572.232 132.848 572.784 132.728 573.504 132.584C574.272 132.44 575.088 132.368 575.952 132.368C577.632 132.368 578.856 132.68 579.624 133.304C580.44 133.928 580.848 135.032 580.848 136.616V142.592H591.432C591.672 142.976 591.888 143.48 592.08 144.104C592.272 144.728 592.368 145.4 592.368 146.12C592.368 147.368 592.08 148.28 591.504 148.856C590.928 149.432 590.16 149.72 589.2 149.72H580.848V165.416ZM599.767 142.16C600.151 142.064 600.703 141.944 601.423 141.8C602.191 141.656 603.007 141.584 603.871 141.584C605.599 141.584 606.847 141.896 607.615 142.52C608.431 143.144 608.839 144.248 608.839 145.832V175.928C608.455 176.024 607.879 176.144 607.111 176.288C606.391 176.432 605.599 176.504 604.735 176.504C603.007 176.504 601.735 176.192 600.919 175.568C600.151 174.944 599.767 173.84 599.767 172.256V142.16ZM599.047 131.72C599.047 130.328 599.527 129.152 600.487 128.192C601.495 127.184 602.767 126.68 604.303 126.68C605.839 126.68 607.087 127.184 608.047 128.192C609.007 129.152 609.487 130.328 609.487 131.72C609.487 133.16 609.007 134.384 608.047 135.392C607.087 136.352 605.839 136.832 604.303 136.832C602.767 136.832 601.495 136.352 600.487 135.392C599.527 134.384 599.047 133.16 599.047 131.72ZM640.859 154.04C640.859 151.976 640.259 150.464 639.059 149.504C637.907 148.544 636.323 148.064 634.307 148.064C632.915 148.064 631.619 148.232 630.419 148.568C629.267 148.904 628.259 149.336 627.395 149.864V175.928C626.963 176.024 626.387 176.144 625.667 176.288C624.947 176.432 624.131 176.504 623.219 176.504C621.539 176.504 620.291 176.192 619.475 175.568C618.659 174.944 618.251 173.84 618.251 172.256V149.144C618.251 147.992 618.491 147.056 618.971 146.336C619.451 145.616 620.195 144.92 621.203 144.248C622.595 143.288 624.443 142.496 626.747 141.872C629.051 141.2 631.595 140.864 634.379 140.864C639.323 140.864 643.139 141.968 645.827 144.176C648.563 146.336 649.931 149.528 649.931 153.752V175.928C649.547 176.024 648.971 176.144 648.203 176.288C647.483 176.432 646.691 176.504 645.827 176.504C644.099 176.504 642.827 176.192 642.011 175.568C641.243 174.944 640.859 173.84 640.859 172.256V154.04Z" fill="#333333"/>
</g>
<defs>
<clipPath id="clip0_1_301">
<rect width="900" height="280" fill="white"/>
</clipPath>
<clipPath id="clip1_1_301">
<rect width="1440" height="40" fill="white" transform="translate(-265 30)"/>
</clipPath>
</defs>
</svg>
